<!-- Определение SVG-иконок -->
<svg xmlns="http://www.w3.org/2000/svg">

    <!--Иконка с + -->
  <symbol id="plus-icon-svg" viewBox="0 0 32 32">
    <path d="M14.088 27C12.2458 27 10.5116 26.6471 8.88532 25.9412C7.25908 25.2353 5.82455 24.2603 4.58172 23.0162C3.3389 21.7721 2.36492 20.336 1.65977 18.7081C0.954624 17.0801 0.602051 15.3441 0.602051 13.5C0.602051 11.6559 0.954624 9.91985 1.65977 8.29191C2.36492 6.66397 3.3367 5.22794 4.57511 3.98382C5.81353 2.73971 7.24586 1.76471 8.8721 1.05882C10.4983 0.352942 12.2326 0 14.0748 0C15.917 0 17.6534 0.352942 19.284 1.05882C20.9147 1.76471 22.3514 2.73971 23.5943 3.98382C24.8371 5.22794 25.8111 6.66397 26.5162 8.29191C27.2214 9.91985 27.5739 11.6559 27.5739 13.5C27.5739 15.3441 27.2214 17.0801 26.5162 18.7081C25.8111 20.336 24.8371 21.7721 23.5943 23.0162C22.3514 24.2603 20.9169 25.2353 19.2907 25.9412C17.6644 26.6471 15.9302 27 14.088 27ZM7.63589 13.5132C7.63589 13.8485 7.74387 14.1199 7.95982 14.3272C8.17577 14.5346 8.45563 14.6382 8.79939 14.6382H12.9377V18.7941C12.9377 19.1382 13.0435 19.4184 13.255 19.6346C13.4666 19.8507 13.7398 19.9588 14.0748 19.9588C14.4185 19.9588 14.6984 19.8507 14.9143 19.6346C15.1303 19.4184 15.2383 19.1382 15.2383 18.7941V14.6382H19.3898C19.7248 14.6382 20.0024 14.5346 20.2228 14.3272C20.4431 14.1199 20.5533 13.8485 20.5533 13.5132C20.5533 13.1691 20.4431 12.889 20.2228 12.6728C20.0024 12.4566 19.7248 12.3485 19.3898 12.3485H15.2383V8.20588C15.2383 7.86176 15.1303 7.57941 14.9143 7.35882C14.6984 7.13824 14.4185 7.02794 14.0748 7.02794C13.7398 7.02794 13.4666 7.13824 13.255 7.35882C13.0435 7.57941 12.9377 7.86176 12.9377 8.20588V12.3485H8.79939C8.45563 12.3485 8.17577 12.4566 7.95982 12.6728C7.74387 12.889 7.63589 12.3485 7.63589 13.5132Z"/>
  </symbol>
  <!--Иконка с > -->
  <symbol id="icon-daleye-svg" viewBox="0 0 7 11">
    <path d="M1.49976 10.5283C1.32039 10.5283 1.1534 10.4835 0.998779 10.3938C0.844157 10.3041 0.722005 10.1851 0.632324 10.0366C0.542643 9.88818 0.497803 9.72428 0.497803 9.54492C0.497803 9.26042 0.606038 9.01611 0.82251 8.81201L4.27368 5.44434L0.82251 2.05811C0.606038 1.84163 0.497803 1.59733 0.497803 1.3252C0.497803 1.14583 0.542643 0.981934 0.632324 0.833496C0.722005 0.685059 0.844157 0.565999 0.998779 0.476318C1.1534 0.386638 1.32039 0.341797 1.49976 0.341797C1.62964 0.341797 1.75024 0.366536 1.86157 0.416016C1.9729 0.465495 2.07804 0.533528 2.177 0.620117L6.24048 4.61865C6.48169 4.85986 6.60229 5.132 6.60229 5.43506C6.60229 5.73812 6.48169 6.01025 6.24048 6.25146L2.177 10.25C1.99764 10.4355 1.77189 10.5283 1.49976 10.5283Z" fill="#0066CC"/>
  </symbol>
  
    <!--Иконка play -->
    <symbol id="icon-play-svg" viewBox="0 0 16 15">
<path d="M8 15C7.2732 15 6.57124 14.9105 5.89412 14.7316C5.21699 14.5527 4.58039 14.2978 3.98431 13.9669C3.38824 13.636 2.84706 13.2426 2.36078 12.7868C1.87451 12.3309 1.4549 11.8235 1.10196 11.2647C0.74902 10.7059 0.477124 10.1091 0.286275 9.47426C0.0954248 8.83946 0 8.18137 0 7.5C0 6.81373 0.0954248 6.15441 0.286275 5.52206C0.477124 4.88971 0.747712 4.29412 1.09804 3.73529C1.44837 3.17647 1.86667 2.66912 2.35294 2.21323C2.83922 1.75735 3.38039 1.36397 3.97647 1.03309C4.57255 0.702206 5.20915 0.447304 5.88627 0.268382C6.5634 0.0894604 7.26536 0 7.99216 0C8.72418 0 9.42876 0.0894604 10.1059 0.268382C10.783 0.447304 11.4183 0.702206 12.0118 1.03309C12.6052 1.36397 13.1464 1.75735 13.6353 2.21323C14.1242 2.66912 14.5451 3.17647 14.898 3.73529C15.251 4.29412 15.5229 4.88971 15.7137 5.52206C15.9046 6.15441 16 6.81373 16 7.5C16 8.18137 15.9046 8.83946 15.7137 9.47426C15.5229 10.1091 15.251 10.7059 14.898 11.2647C14.5451 11.8235 14.1255 12.3309 13.6392 12.7868C13.1529 13.2426 12.6118 13.636 12.0157 13.9669C11.4196 14.2978 10.7843 14.5527 10.1098 14.7316C9.4353 14.9105 8.73203 15 8 15ZM8 13.75C8.74248 13.75 9.44706 13.6458 10.1137 13.4375C10.7804 13.2292 11.3909 12.9338 11.9451 12.5515C12.4993 12.1691 12.9804 11.7181 13.3882 11.1985C13.7961 10.6789 14.1111 10.1066 14.3333 9.48162C14.5556 8.85662 14.6667 8.19608 14.6667 7.5C14.6667 6.80392 14.5542 6.14338 14.3294 5.51838C14.1046 4.89338 13.7882 4.32108 13.3804 3.80147C12.9725 3.28186 12.4915 2.83088 11.9373 2.44853C11.383 2.06618 10.7725 1.77083 10.1059 1.5625C9.43922 1.35417 8.73464 1.25 7.99216 1.25C7.24967 1.25 6.54641 1.35417 5.88235 1.5625C5.2183 1.77083 4.60915 2.06618 4.0549 2.44853C3.50065 2.83088 3.02092 3.28186 2.61569 3.80147C2.21046 4.32108 1.89673 4.89338 1.67451 5.51838C1.45229 6.14338 1.34118 6.80392 1.34118 7.5C1.34118 8.19608 1.45229 8.85662 1.67451 9.48162C1.89673 10.1066 2.21046 10.6789 2.61569 11.1985C3.02092 11.7181 3.50065 12.1691 4.0549 12.5515C4.60915 12.9338 5.21961 13.2292 5.88627 13.4375C6.55294 13.6458 7.25752 13.75 8 13.75ZM6.61961 10.2059C6.50458 10.2696 6.39085 10.2978 6.27843 10.2904C6.16601 10.2831 6.0719 10.2451 5.99608 10.1765C5.92026 10.1078 5.88235 10.0196 5.88235 9.91176V5.09559C5.88235 4.98284 5.92157 4.89461 6 4.83088C6.07843 4.76716 6.17516 4.73162 6.2902 4.72427C6.40523 4.71691 6.51503 4.74265 6.61961 4.80147L10.8235 7.13235C10.9229 7.18627 10.9895 7.26103 11.0235 7.35662C11.0575 7.45221 11.0588 7.54779 11.0275 7.64338C10.9961 7.73897 10.9281 7.81618 10.8235 7.875L6.61961 10.2059Z" fill="#0066CC"/>
    </symbol>

    <!--Иконка корзина -->
    <symbol id="icon-basket-svg"  viewBox="0 0 14 15">
<path fill="currentColor" d="M11.0217 3.02828H10.0012C9.89184 2.21726 9.49549 1.47228 8.88403 0.92837C8.27258 0.384462 7.48648 0.0776246 6.66824 0.0634766C5.85 0.0776246 5.06391 0.384462 4.45245 0.92837C3.841 1.47228 3.44464 2.21726 3.33524 3.02828H2.31524C1.75403 3.02865 1.2159 3.2517 0.818989 3.64846C0.422078 4.04522 0.198825 4.58327 0.198242 5.14448V12.86C0.198745 13.4211 0.421847 13.9591 0.818588 14.356C1.21533 14.7528 1.7533 14.976 2.31444 14.9767H11.0214C11.5827 14.9762 12.1208 14.753 12.5177 14.3562C12.9146 13.9593 13.1377 13.4212 13.1382 12.86V5.14448C13.1377 4.58335 12.9145 4.04538 12.5177 3.64863C12.1209 3.25189 11.5829 3.02878 11.0217 3.02828ZM6.66824 1.16308C7.19565 1.17454 7.70336 1.36565 8.10743 1.7048C8.51149 2.04395 8.78772 2.51084 8.89044 3.02828H4.44604C4.54877 2.51084 4.82499 2.04395 5.22906 1.7048C5.63312 1.36565 6.14083 1.17454 6.66824 1.16308ZM12.0382 12.86C12.038 13.1296 11.9308 13.388 11.7402 13.5787C11.5496 13.7693 11.2912 13.8767 11.0216 13.8771H2.31474C2.04518 13.8766 1.7868 13.7693 1.59625 13.5786C1.4057 13.388 1.29853 13.1295 1.29824 12.86V5.14448C1.29856 4.87496 1.40577 4.61656 1.59635 4.42598C1.78693 4.2354 2.04532 4.12819 2.31484 4.12788H11.0218C11.2913 4.12825 11.5497 4.23548 11.7402 4.42605C11.9307 4.61663 12.0379 4.87499 12.0382 5.14448V12.86Z"/>
    </symbol>

    <!--Иконка поиск -->
    <symbol id="icon-search-svg" viewBox="0 0 15 15">
      <path fill="currentColor" d="M13.9667 13.202L10.0967 9.33195C10.7977 8.40295 11.2187 7.25095 11.2187 5.99995C11.2187 2.93995 8.72965 0.449951 5.66865 0.449951C2.60865 0.449951 0.118652 2.93995 0.118652 5.99995C0.118652 9.06095 2.60865 11.55 5.66865 11.55C6.91965 11.55 8.07165 11.129 9.00065 10.428L12.8707 14.298C13.0217 14.449 13.2207 14.526 13.4187 14.526C13.6167 14.526 13.8147 14.45 13.9667 14.298C14.2697 13.995 14.2697 13.505 13.9667 13.202ZM1.21865 5.99995C1.21865 3.54595 3.21565 1.54995 5.66865 1.54995C8.12265 1.54995 10.1187 3.54695 10.1187 5.99995C10.1187 8.45295 8.12265 10.45 5.66865 10.45C3.21465 10.45 1.21865 8.45395 1.21865 5.99995Z"/>
    </symbol>

    <!--Иконка закрыть -->
    <symbol id="icon-close-svg" viewBox="0 0 24 24">
                <path d="M18.3 5.71a1 1 0 00-1.42 0L12 10.59 7.12 5.71a1 1 0 00-1.42 1.42L10.59 12l-4.88 4.88a1 1 0 001.42 1.42L12 13.41l4.88 4.88a1 1 0 001.42-1.42L13.41 12l4.88-4.88a1 1 0 000-1.41z"/>
    </symbol>
    <!--Иконка назад -->
    <symbol id="icon-back-svg" viewBox="0 0 24 24">  
      <path d="M15.41 16.59L10.83 12l4.58-4.59L14 6l-6 6 6 6 1.41-1.41z"/>
    </symbol>
    <!--Иконка вперед -->
    <symbol id="icon-forward-svg" viewBox="0 0 24 24">  
      <path d="M8.59 16.59L13.17 12 8.59 7.41 10 6l6 6-6 6-1.41-1.41z"/>
    </symbol>
     


 
</svg>