<svg width="6" height="9" viewBox="0 0 6 9" fill="none" xmlns="http://www.w3.org/2000/svg">
<path d="M1.03228 8.78613C0.879394 8.78613 0.737051 8.74791 0.605252 8.67147C0.473453 8.59502 0.369331 8.49354 0.292888 8.36701C0.216444 8.24048 0.178223 8.10078 0.178223 7.94789C0.178223 7.70538 0.270482 7.49714 0.455001 7.32316L3.39676 4.45258L0.455001 1.56617C0.270482 1.38166 0.178223 1.17341 0.178223 0.941447C0.178223 0.78856 0.216444 0.648853 0.292888 0.522326C0.369331 0.395799 0.473453 0.294313 0.605252 0.21787C0.737051 0.141426 0.879394 0.103205 1.03228 0.103205C1.14299 0.103205 1.2458 0.124292 1.34069 0.166468C1.43559 0.208644 1.52521 0.266635 1.60956 0.340443L5.07324 3.74877C5.27885 3.95438 5.38165 4.18634 5.38165 4.44467C5.38165 4.70299 5.27885 4.93496 5.07324 5.14057L1.60956 8.54889C1.45667 8.70705 1.26425 8.78613 1.03228 8.78613Z" fill="#0066CC"/>
</svg>
