<svg width="28" height="27" viewBox="0 0 28 27" fill="none" xmlns="http://www.w3.org/2000/svg">
<path d="M14.088 27C12.2458 27 10.5116 26.6471 8.88532 25.9412C7.25908 25.2353 5.82455 24.2603 4.58172 23.0162C3.3389 21.7721 2.36492 20.336 1.65977 18.7081C0.954624 17.0801 0.602051 15.3441 0.602051 13.5C0.602051 11.6559 0.954624 9.91985 1.65977 8.29191C2.36492 6.66397 3.3367 5.22794 4.57511 3.98382C5.81353 2.73971 7.24586 1.76471 8.8721 1.05882C10.4983 0.352942 12.2326 0 14.0748 0C15.917 0 17.6534 0.352942 19.284 1.05882C20.9147 1.76471 22.3514 2.73971 23.5943 3.98382C24.8371 5.22794 25.8111 6.66397 26.5162 8.29191C27.2214 9.91985 27.5739 11.6559 27.5739 13.5C27.5739 15.3441 27.2214 17.0801 26.5162 18.7081C25.8111 20.336 24.8371 21.7721 23.5943 23.0162C22.3514 24.2603 20.9169 25.2353 19.2907 25.9412C17.6644 26.6471 15.9302 27 14.088 27ZM7.63589 13.5132C7.63589 13.8485 7.74387 14.1199 7.95982 14.3272C8.17577 14.5346 8.45563 14.6382 8.79939 14.6382H12.9377V18.7941C12.9377 19.1382 13.0435 19.4184 13.255 19.6346C13.4666 19.8507 13.7398 19.9588 14.0748 19.9588C14.4185 19.9588 14.6984 19.8507 14.9143 19.6346C15.1303 19.4184 15.2383 19.1382 15.2383 18.7941V14.6382H19.3898C19.7248 14.6382 20.0024 14.5346 20.2228 14.3272C20.4431 14.1199 20.5533 13.8485 20.5533 13.5132C20.5533 13.1691 20.4431 12.889 20.2228 12.6728C20.0024 12.4566 19.7248 12.3485 19.3898 12.3485H15.2383V8.20588C15.2383 7.86176 15.1303 7.57941 14.9143 7.35882C14.6984 7.13824 14.4185 7.02794 14.0748 7.02794C13.7398 7.02794 13.4666 7.13824 13.255 7.35882C13.0435 7.57941 12.9377 7.86176 12.9377 8.20588V12.3485H8.79939C8.45563 12.3485 8.17577 12.4566 7.95982 12.6728C7.74387 12.889 7.63589 13.1691 7.63589 13.5132Z" fill="#1D1D1F"/>
</svg>
