<svg width="16" height="15" viewBox="0 0 16 15" fill="none" xmlns="http://www.w3.org/2000/svg">
<path d="M8 15C7.2732 15 6.57124 14.9105 5.89412 14.7316C5.21699 14.5527 4.58039 14.2978 3.98431 13.9669C3.38824 13.636 2.84706 13.2426 2.36078 12.7868C1.87451 12.3309 1.4549 11.8235 1.10196 11.2647C0.74902 10.7059 0.477124 10.1091 0.286275 9.47426C0.0954248 8.83946 0 8.18137 0 7.5C0 6.81373 0.0954248 6.15441 0.286275 5.52206C0.477124 4.88971 0.747712 4.29412 1.09804 3.73529C1.44837 3.17647 1.86667 2.66912 2.35294 2.21323C2.83922 1.75735 3.38039 1.36397 3.97647 1.03309C4.57255 0.702206 5.20915 0.447304 5.88627 0.268382C6.5634 0.0894604 7.26536 0 7.99216 0C8.72418 0 9.42876 0.0894604 10.1059 0.268382C10.783 0.447304 11.4183 0.702206 12.0118 1.03309C12.6052 1.36397 13.1464 1.75735 13.6353 2.21323C14.1242 2.66912 14.5451 3.17647 14.898 3.73529C15.251 4.29412 15.5229 4.88971 15.7137 5.52206C15.9046 6.15441 16 6.81373 16 7.5C16 8.18137 15.9046 8.83946 15.7137 9.47426C15.5229 10.1091 15.251 10.7059 14.898 11.2647C14.5451 11.8235 14.1255 12.3309 13.6392 12.7868C13.1529 13.2426 12.6118 13.636 12.0157 13.9669C11.4196 14.2978 10.7843 14.5527 10.1098 14.7316C9.4353 14.9105 8.73203 15 8 15ZM8 13.75C8.74248 13.75 9.44706 13.6458 10.1137 13.4375C10.7804 13.2292 11.3909 12.9338 11.9451 12.5515C12.4993 12.1691 12.9804 11.7181 13.3882 11.1985C13.7961 10.6789 14.1111 10.1066 14.3333 9.48162C14.5556 8.85662 14.6667 8.19608 14.6667 7.5C14.6667 6.80392 14.5542 6.14338 14.3294 5.51838C14.1046 4.89338 13.7882 4.32108 13.3804 3.80147C12.9725 3.28186 12.4915 2.83088 11.9373 2.44853C11.383 2.06618 10.7725 1.77083 10.1059 1.5625C9.43922 1.35417 8.73464 1.25 7.99216 1.25C7.24967 1.25 6.54641 1.35417 5.88235 1.5625C5.2183 1.77083 4.60915 2.06618 4.0549 2.44853C3.50065 2.83088 3.02092 3.28186 2.61569 3.80147C2.21046 4.32108 1.89673 4.89338 1.67451 5.51838C1.45229 6.14338 1.34118 6.80392 1.34118 7.5C1.34118 8.19608 1.45229 8.85662 1.67451 9.48162C1.89673 10.1066 2.21046 10.6789 2.61569 11.1985C3.02092 11.7181 3.50065 12.1691 4.0549 12.5515C4.60915 12.9338 5.21961 13.2292 5.88627 13.4375C6.55294 13.6458 7.25752 13.75 8 13.75ZM6.61961 10.2059C6.50458 10.2696 6.39085 10.2978 6.27843 10.2904C6.16601 10.2831 6.0719 10.2451 5.99608 10.1765C5.92026 10.1078 5.88235 10.0196 5.88235 9.91176V5.09559C5.88235 4.98284 5.92157 4.89461 6 4.83088C6.07843 4.76716 6.17516 4.73162 6.2902 4.72427C6.40523 4.71691 6.51503 4.74265 6.61961 4.80147L10.8235 7.13235C10.9229 7.18627 10.9895 7.26103 11.0235 7.35662C11.0575 7.45221 11.0588 7.54779 11.0275 7.64338C10.9961 7.73897 10.9281 7.81618 10.8235 7.875L6.61961 10.2059Z" fill="#0066CC"/>
</svg>
