<svg width="32" height="32" viewBox="0 0 32 32" fill="none" xmlns="http://www.w3.org/2000/svg">
<path d="M15.7381 31.5195C13.5883 31.5195 11.5644 31.1075 9.6666 30.2835C7.76877 29.4594 6.09466 28.3212 4.64429 26.8688C3.19391 25.4164 2.05727 23.74 1.23436 21.8395C0.411454 19.939 0 17.9124 0 15.7595C0 13.6067 0.411454 11.5801 1.23436 9.67958C2.05727 7.77911 3.19134 6.10268 4.63657 4.65029C6.08181 3.1979 7.75334 2.05968 9.65117 1.23563C11.549 0.411573 13.5728 -0.000452042 15.7227 -0.000452042C17.8725 -0.000452042 19.8989 0.411573 21.8019 1.23563C23.7049 2.05968 25.3816 3.1979 26.8319 4.65029C28.2823 6.10268 29.419 7.77911 30.2419 9.67958C31.0648 11.5801 31.4762 13.6067 31.4762 15.7595C31.4762 17.9124 31.0648 19.939 30.2419 21.8395C29.419 23.74 28.2823 25.4164 26.8319 26.8688C25.3816 28.3212 23.7075 29.4594 21.8096 30.2835C19.9118 31.1075 17.888 31.5195 15.7381 31.5195ZM8.20851 15.775C8.20851 16.1664 8.33452 16.4832 8.58653 16.7252C8.83855 16.9673 9.16514 17.0883 9.56631 17.0883H14.3957V21.9399C14.3957 22.3417 14.5192 22.6687 14.7661 22.9211C15.0129 23.1734 15.3318 23.2996 15.7227 23.2996C16.1239 23.2996 16.4504 23.1734 16.7025 22.9211C16.9545 22.6687 17.0805 22.3417 17.0805 21.9399V17.0883H21.9254C22.3162 17.0883 22.6403 16.9673 22.8974 16.7252C23.1546 16.4832 23.2832 16.1664 23.2832 15.775C23.2832 15.3733 23.1546 15.0462 22.8974 14.7939C22.6403 14.5415 22.3162 14.4153 21.9254 14.4153H17.0805V9.57915C17.0805 9.17743 16.9545 8.84781 16.7025 8.59029C16.4504 8.33277 16.1239 8.20401 15.7227 8.20401C15.3318 8.20401 15.0129 8.33277 14.7661 8.59029C14.5192 8.84781 14.3957 9.17743 14.3957 9.57915V14.4153H9.56631C9.16514 14.4153 8.83855 14.5415 8.58653 14.7939C8.33452 15.0462 8.20851 15.3733 8.20851 15.775Z" fill="#1D1D1F"/>
</svg>
