<svg width="18" height="16" viewBox="0 0 18 16" fill="none" xmlns="http://www.w3.org/2000/svg">
<path d="M9.23935 15.2463C8.48433 15.2463 7.75511 15.1472 7.0517 14.9489C6.34828 14.7507 5.68696 14.4682 5.06773 14.1016C4.44851 13.7349 3.88632 13.299 3.38116 12.7939C2.87601 12.2887 2.44011 11.7265 2.07346 11.1073C1.70681 10.4881 1.42436 9.82677 1.2261 9.12335C1.02784 8.41994 0.928711 7.69072 0.928711 6.9357C0.928711 6.17525 1.02784 5.44467 1.2261 4.74397C1.42436 4.04327 1.70546 3.38331 2.06939 2.76408C2.43332 2.14486 2.86786 1.58267 3.37302 1.07751C3.87817 0.572357 4.44036 0.136456 5.05959 -0.230189C5.67881 -0.596835 6.34013 -0.879288 7.04355 -1.07755C7.74697 -1.27581 8.47618 -1.37494 9.2312 -1.37494C9.99165 -1.37494 10.7236 -1.27581 11.427 -1.07755C12.1304 -0.879288 12.7904 -0.596835 13.4069 -0.230189C14.0234 0.136456 14.5856 0.572357 15.0935 1.07751C15.6013 1.58267 16.0386 2.14486 16.4052 2.76408C16.7719 3.38331 17.0543 4.04327 17.2526 4.74397C17.4509 5.44467 17.55 6.17525 17.55 6.9357C17.55 7.69072 17.4509 8.41994 17.2526 9.12335C17.0543 9.82677 16.7719 10.4881 16.4052 11.1073C16.0386 11.7265 15.6027 12.2887 15.0975 12.7939C14.5924 13.299 14.0302 13.7349 13.411 14.1016C12.7917 14.4682 12.1318 14.7507 11.4311 14.9489C10.7304 15.1472 9.9998 15.2463 9.23935 15.2463ZM9.23935 13.8612C10.0107 13.8612 10.7426 13.7458 11.4352 13.515C12.1277 13.2841 12.7619 12.9568 13.3376 12.5332C13.9134 12.1095 14.4131 11.6098 14.8368 11.034C15.2605 10.4582 15.5878 9.82405 15.8186 9.1315C16.0495 8.43895 16.1649 7.70701 16.1649 6.9357C16.1649 6.16438 16.0481 5.43245 15.8145 4.7399C15.581 4.04735 15.2523 3.41318 14.8287 2.83741C14.405 2.26164 13.9053 1.76192 13.3295 1.33824C12.7537 0.91456 12.1196 0.587295 11.427 0.356443C10.7344 0.125593 10.0025 0.0101671 9.2312 0.0101671C8.45989 0.0101671 7.72931 0.125593 7.03947 0.356443C6.34964 0.587295 5.71683 0.91456 5.14106 1.33824C4.56529 1.76192 4.06693 2.26164 3.64596 2.83741C3.225 3.41318 2.89909 4.04735 2.66824 4.7399C2.43739 5.43245 2.32197 6.16438 2.32197 6.9357C2.32197 7.70701 2.43739 8.43895 2.66824 9.1315C2.89909 9.82405 3.225 10.4582 3.64596 11.034C4.06693 11.6098 4.56529 12.1095 5.14106 12.5332C5.71683 12.9568 6.351 13.2841 7.04355 13.515C7.7361 13.7458 8.46804 13.8612 9.23935 13.8612ZM7.80536 9.93405C7.68586 10.0047 7.56772 10.0359 7.45093 10.0277C7.33415 10.0196 7.23638 9.9775 7.15762 9.90146C7.07886 9.82541 7.03947 9.72764 7.03947 9.60814V4.27141C7.03947 4.14647 7.08021 4.0487 7.16169 3.97809C7.24317 3.90748 7.34365 3.8681 7.46315 3.85995C7.58265 3.8518 7.69672 3.88032 7.80536 3.9455L12.1725 6.52832C12.2757 6.58807 12.345 6.6709 12.3803 6.77682C12.4156 6.88274 12.4169 6.98866 12.3844 7.09458C12.3518 7.2005 12.2812 7.28605 12.1725 7.35123L7.80536 9.93405Z" fill="#0066CC"/>
</svg>
