<svg width="7" height="11" viewBox="0 0 7 11" fill="none" xmlns="http://www.w3.org/2000/svg">
<path d="M1.49976 10.5283C1.32039 10.5283 1.1534 10.4835 0.998779 10.3938C0.844157 10.3041 0.722005 10.1851 0.632324 10.0366C0.542643 9.88818 0.497803 9.72428 0.497803 9.54492C0.497803 9.26042 0.606038 9.01611 0.82251 8.81201L4.27368 5.44434L0.82251 2.05811C0.606038 1.84163 0.497803 1.59733 0.497803 1.3252C0.497803 1.14583 0.542643 0.981934 0.632324 0.833496C0.722005 0.685059 0.844157 0.565999 0.998779 0.476318C1.1534 0.386638 1.32039 0.341797 1.49976 0.341797C1.62964 0.341797 1.75024 0.366536 1.86157 0.416016C1.9729 0.465495 2.07804 0.533528 2.177 0.620117L6.24048 4.61865C6.48169 4.85986 6.60229 5.132 6.60229 5.43506C6.60229 5.73812 6.48169 6.01025 6.24048 6.25146L2.177 10.25C1.99764 10.4355 1.77189 10.5283 1.49976 10.5283Z" fill="#0066CC"/>
</svg>
