<svg width="14" height="15" viewBox="0 0 14 15" fill="none" xmlns="http://www.w3.org/2000/svg">
<path d="M11.0217 3.02828H10.0012C9.89184 2.21726 9.49549 1.47228 8.88403 0.92837C8.27258 0.384462 7.48648 0.0776246 6.66824 0.0634766C5.85 0.0776246 5.06391 0.384462 4.45245 0.92837C3.841 1.47228 3.44464 2.21726 3.33524 3.02828H2.31524C1.75403 3.02865 1.2159 3.2517 0.818989 3.64846C0.422078 4.04522 0.198825 4.58327 0.198242 5.14448V12.86C0.198745 13.4211 0.421847 13.9591 0.818588 14.356C1.21533 14.7528 1.7533 14.976 2.31444 14.9767H11.0214C11.5827 14.9762 12.1208 14.753 12.5177 14.3562C12.9146 13.9593 13.1377 13.4212 13.1382 12.86V5.14448C13.1377 4.58335 12.9145 4.04538 12.5177 3.64863C12.1209 3.25189 11.5829 3.02878 11.0217 3.02828ZM6.66824 1.16308C7.19565 1.17454 7.70336 1.36565 8.10743 1.7048C8.51149 2.04395 8.78772 2.51084 8.89044 3.02828H4.44604C4.54877 2.51084 4.82499 2.04395 5.22906 1.7048C5.63312 1.36565 6.14083 1.17454 6.66824 1.16308ZM12.0382 12.86C12.038 13.1296 11.9308 13.388 11.7402 13.5787C11.5496 13.7693 11.2912 13.8767 11.0216 13.8771H2.31474C2.04518 13.8766 1.7868 13.7693 1.59625 13.5786C1.4057 13.388 1.29853 13.1295 1.29824 12.86V5.14448C1.29856 4.87496 1.40577 4.61656 1.59635 4.42598C1.78693 4.2354 2.04532 4.12819 2.31484 4.12788H11.0218C11.2913 4.12825 11.5497 4.23548 11.7402 4.42605C11.9307 4.61663 12.0379 4.87499 12.0382 5.14448V12.86Z" fill="white" fill-opacity="0.8"/>
</svg>
