<svg width="15" height="15" viewBox="0 0 15 15" fill="none" xmlns="http://www.w3.org/2000/svg">
<path d="M13.9667 13.202L10.0967 9.33195C10.7977 8.40295 11.2187 7.25095 11.2187 5.99995C11.2187 2.93995 8.72965 0.449951 5.66865 0.449951C2.60865 0.449951 0.118652 2.93995 0.118652 5.99995C0.118652 9.06095 2.60865 11.55 5.66865 11.55C6.91965 11.55 8.07165 11.129 9.00065 10.428L12.8707 14.298C13.0217 14.449 13.2207 14.526 13.4187 14.526C13.6167 14.526 13.8147 14.45 13.9667 14.298C14.2697 13.995 14.2697 13.505 13.9667 13.202ZM1.21865 5.99995C1.21865 3.54595 3.21565 1.54995 5.66865 1.54995C8.12265 1.54995 10.1187 3.54695 10.1187 5.99995C10.1187 8.45295 8.12265 10.45 5.66865 10.45C3.21465 10.45 1.21865 8.45395 1.21865 5.99995Z" fill="white" fill-opacity="0.8"/>
</svg>
