<svg width="5" height="9" viewBox="0 0 5 9" fill="none" xmlns="http://www.w3.org/2000/svg">
<path d="M0.764712 8.69922C0.601891 8.69922 0.462705 8.64276 0.347154 8.52983C0.231603 8.41691 0.173828 8.27903 0.173828 8.11621C0.173828 7.95339 0.23423 7.81158 0.355033 7.69078L3.53793 4.51576L0.355033 1.34074C0.23423 1.21994 0.173828 1.07813 0.173828 0.915307C0.173828 0.752485 0.231603 0.614613 0.347154 0.501688C0.462705 0.388763 0.601891 0.332301 0.764712 0.332301C0.917029 0.332301 1.05359 0.38745 1.17439 0.497748L4.76697 4.07457C4.89302 4.19012 4.95605 4.33718 4.95605 4.51576C4.95605 4.68383 4.89302 4.8309 4.76697 4.95695L1.17439 8.53377C1.06409 8.64407 0.927534 8.69922 0.764712 8.69922Z" fill="#F5F5F7"/>
</svg>
