<svg width="5" height="9" viewBox="0 0 5 9" fill="none" xmlns="http://www.w3.org/2000/svg">
<path d="M0.626869 8.70508C0.463819 8.70508 0.324438 8.64854 0.208725 8.53545C0.0930126 8.42237 0.0351562 8.2843 0.0351562 8.12125C0.0351562 7.95821 0.0956424 7.81619 0.216615 7.69522L3.40397 4.51575L0.216615 1.33628C0.0956424 1.21531 0.0351562 1.0733 0.0351562 0.91025C0.0351562 0.7472 0.0930126 0.609134 0.208725 0.496051C0.324438 0.382968 0.463819 0.326427 0.626869 0.326427C0.779399 0.326427 0.916151 0.381653 1.03712 0.492105L4.63474 4.07394C4.76097 4.18965 4.82408 4.33692 4.82408 4.51575C4.82408 4.68406 4.76097 4.83133 4.63474 4.95756L1.03712 8.5394C0.92667 8.64985 0.789919 8.70508 0.626869 8.70508Z" fill="#0066CC"/>
</svg>
